<svg xmlns="http://www.w3.org/2000/svg" width="32" height="32" viewBox="0 0 32 32">
  <defs>
    <linearGradient id="lemon-body" x1="0" y1="0" x2="0.3" y2="1">
      <stop offset="0%" stop-color="#FFF176"/>
      <stop offset="50%" stop-color="#FFEE58"/>
      <stop offset="100%" stop-color="#FDD835"/>
    </linearGradient>
    <linearGradient id="lemon-shadow" x1="0" y1="0" x2="1" y2="1">
      <stop offset="0%" stop-color="#F9A825" stop-opacity="0"/>
      <stop offset="100%" stop-color="#F9A825" stop-opacity="0.4"/>
    </linearGradient>
  </defs>
  <!-- Lemon body -->
  <ellipse cx="16" cy="17" rx="11" ry="13" fill="url(#lemon-body)"/>
  <!-- Lemon tip (bottom) -->
  <path d="M16 30 Q13 28 14 26 Q16 27 18 26 Q19 28 16 30Z" fill="#FDD835"/>
  <!-- Shadow/dimension -->
  <ellipse cx="16" cy="17" rx="11" ry="13" fill="url(#lemon-shadow)"/>
  <!-- Outline -->
  <ellipse cx="16" cy="17" rx="11" ry="13" fill="none" stroke="#F9A825" stroke-width="0.8"/>
  <!-- Leaf stem -->
  <path d="M16 4.5 Q15.5 3 15 2" fill="none" stroke="#6D4C41" stroke-width="1.2" stroke-linecap="round"/>
  <!-- Leaf 1 -->
  <path d="M15 3 Q11 1 10 3 Q11 5 15 4Z" fill="#43A047"/>
  <!-- Leaf 2 -->
  <path d="M15.5 3.5 Q19 1 20 3 Q19 5 15.5 4.5Z" fill="#66BB6A"/>
  <!-- Shine highlights -->
  <ellipse cx="12.5" cy="12" rx="2.5" ry="3.5" fill="#fff" opacity="0.3" transform="rotate(-15 12.5 12)"/>
  <circle cx="10.5" cy="18" r="1" fill="#fff" opacity="0.2"/>
  <!-- Texture dots -->
  <circle cx="14" cy="20" r="0.4" fill="#F9A825" opacity="0.3"/>
  <circle cx="18" cy="15" r="0.4" fill="#F9A825" opacity="0.3"/>
  <circle cx="12" cy="16" r="0.35" fill="#F9A825" opacity="0.25"/>
  <circle cx="20" cy="19" r="0.35" fill="#F9A825" opacity="0.25"/>
  <circle cx="16" cy="23" r="0.35" fill="#F9A825" opacity="0.3"/>
  <circle cx="15" cy="11" r="0.3" fill="#F9A825" opacity="0.2"/>
</svg>
